<?xml version="1.0" standalone="no"?>
<!DOCTYPE svg PUBLIC "-//W3C//DTD SVG 20010904//EN"
 "http://www.w3.org/TR/2001/REC-SVG-20010904/DTD/svg10.dtd">
<svg version="1.0" xmlns="http://www.w3.org/2000/svg"
 width="656.000000pt" height="656.000000pt" viewBox="0 0 656.000000 656.000000"
 preserveAspectRatio="xMidYMid meet">
<metadata>
Created by potrace 1.11, written by Peter Selinger 2001-2013
</metadata>
<g transform="translate(0.000000,656.000000) scale(0.100000,-0.100000)"
fill="#000000" stroke="none">
<path d="M4655 5702 c2 -3 -1 -14 -8 -26 -6 -11 -12 -28 -13 -36 -1 -19 -65
-132 -71 -127 -2 3 6 22 19 43 12 21 17 35 11 31 -17 -11 -44 -68 -37 -79 4
-5 -6 -32 -20 -59 -15 -27 -24 -55 -20 -61 4 -7 4 -10 -1 -6 -13 12 -34 -25
-28 -50 3 -12 0 -29 -6 -36 -17 -20 -1 -26 55 -22 41 3 52 9 70 35 11 17 24
28 27 24 4 -3 7 5 7 19 0 30 66 114 87 112 7 -1 13 2 13 7 0 5 -4 9 -10 9 -5
0 -10 5 -10 10 0 6 8 5 19 -2 19 -11 18 -13 -11 -57 l-31 -46 29 26 c74 67
100 78 136 56 15 -10 15 -12 -4 -29 l-21 -18 28 0 c16 0 25 3 22 7 -6 6 12 41
35 68 5 5 26 39 48 74 l38 63 -25 24 c-19 17 -34 22 -58 19 -23 -3 -39 2 -53
16 -12 10 -35 19 -51 19 -27 0 -34 -8 -72 -80 -24 -44 -46 -80 -51 -80 -14 0
-9 19 17 60 14 22 25 44 25 49 0 5 7 14 15 21 8 7 15 17 15 23 0 6 -7 1 -16
-11 -19 -27 -38 -29 -29 -2 6 18 2 20 -34 18 -23 -1 -39 -3 -36 -6z m105 -171
c-6 -12 -15 -21 -21 -21 -10 0 -5 13 14 38 15 19 20 7 7 -17z m50 -24 c0 -2
-10 -12 -22 -23 l-23 -19 19 23 c18 21 26 27 26 19z"/>
<path d="M5026 5661 c-3 -5 1 -11 9 -14 9 -4 12 -1 8 9 -6 16 -10 17 -17 5z"/>
<path d="M4986 5550 c-51 -89 -51 -87 -33 -104 6 -8 19 -23 27 -35 19 -28 24
-27 49 12 11 17 31 48 44 67 32 48 40 70 22 63 -10 -3 -18 5 -25 22 -24 63
-35 60 -84 -25z"/>
<path d="M4110 5513 c0 -12 -83 -30 -130 -28 -21 0 -34 6 -32 13 1 7 -2 12 -8
12 -5 0 -10 -4 -10 -9 0 -8 -28 -21 -60 -26 -83 -15 -98 -16 -104 -7 -4 7 -15
6 -34 -4 -15 -7 -35 -14 -45 -14 -9 0 -25 -4 -35 -9 -28 -14 -113 -32 -123
-26 -5 4 -13 -5 -19 -19 -10 -27 -38 -46 -68 -46 -11 0 -25 -7 -32 -15 -7 -9
-15 -13 -17 -11 -8 7 -136 -51 -158 -71 -11 -11 -33 -23 -48 -27 -30 -7 -34
-10 -81 -51 -16 -14 -34 -25 -41 -25 -6 0 -31 -18 -54 -40 -23 -22 -45 -40
-49 -40 -5 0 -19 -13 -32 -30 -14 -16 -28 -29 -33 -30 -4 0 -31 -25 -60 -56
-28 -31 -73 -78 -99 -106 -27 -27 -48 -53 -48 -59 0 -5 -6 -9 -13 -9 -7 0 -18
-12 -24 -27 -16 -37 -33 -62 -60 -89 -13 -11 -23 -26 -23 -32 0 -5 -7 -13 -16
-16 -8 -3 -13 -10 -9 -15 3 -6 -1 -13 -8 -18 -8 -4 -22 -20 -32 -35 -9 -16
-24 -28 -32 -28 -8 0 -12 -4 -8 -9 3 -5 1 -12 -5 -16 -12 -8 -13 -38 -1 -33 5
2 41 45 80 96 40 50 76 92 82 92 6 0 6 -6 0 -18 -14 -27 -103 -146 -114 -153
-5 -4 -1 -9 9 -12 17 -4 17 -5 -2 -6 -11 0 -37 -19 -57 -41 -23 -24 -43 -37
-52 -34 -8 4 -15 1 -15 -6 0 -6 5 -8 10 -5 15 9 12 -11 -4 -24 -11 -9 -15 -9
-19 1 -4 8 -6 7 -6 -4 -1 -17 -16 -40 -51 -77 -38 -41 -60 -75 -60 -95 0 -22
-48 -126 -64 -137 -5 -4 -6 -12 -2 -18 4 -6 -7 -25 -24 -42 -16 -18 -30 -38
-30 -46 0 -8 -8 -33 -18 -56 -10 -23 -27 -61 -37 -85 -10 -24 -27 -48 -36 -53
-10 -5 -16 -16 -13 -24 6 -15 -21 -98 -40 -125 -24 -34 -34 -57 -27 -68 5 -8
24 6 55 39 37 39 45 53 35 60 -11 6 -9 13 10 33 13 13 20 29 16 35 -3 6 -1 11
4 11 6 0 11 6 11 14 0 8 7 17 16 20 8 3 13 10 10 15 -3 5 1 12 10 15 12 5 14
10 5 20 -6 7 -8 16 -4 19 12 13 -13 7 -26 -5 -30 -29 9 28 48 70 22 23 36 42
31 42 -19 0 15 41 38 47 18 4 21 8 10 14 -10 6 -10 9 0 9 6 0 12 7 12 15 0 8
-6 15 -12 15 -8 0 -9 3 -3 8 14 10 37 52 28 52 -3 0 -16 -8 -27 -17 -11 -10 0
7 25 37 24 30 47 57 52 58 4 2 7 10 7 17 0 7 7 16 16 19 8 3 12 10 9 16 -3 5
1 10 11 10 13 0 14 3 5 14 -9 11 -6 15 16 21 16 4 22 10 16 12 -21 8 -15 23 8
23 17 0 19 3 10 14 -12 14 -5 46 10 46 5 0 9 7 9 16 0 10 6 14 14 11 17 -7 58
35 53 54 -2 8 -2 10 1 6 2 -5 13 0 24 10 31 27 18 4 -32 -59 -25 -32 -51 -55
-57 -53 -15 5 -18 -11 -4 -19 4 -3 16 3 26 14 10 11 22 17 28 13 6 -3 7 -1 3
5 -4 7 -2 12 5 12 7 0 10 3 6 6 -7 7 16 38 187 248 65 80 123 143 129 139 6
-4 7 -1 3 6 -9 14 22 53 35 46 4 -3 11 0 15 6 5 8 3 9 -6 4 -9 -5 -11 -4 -6 3
4 7 14 12 22 12 8 0 14 3 14 8 1 4 19 27 42 52 22 25 37 39 33 31 -6 -10 -4
-12 4 -7 7 5 10 15 7 23 -3 8 -1 11 5 8 11 -7 49 22 49 37 0 4 -9 8 -20 8 -12
0 -20 -7 -20 -17 0 -9 -3 -13 -6 -10 -4 4 -20 -5 -36 -18 -16 -14 -35 -22 -41
-18 -7 3 -9 3 -5 -2 4 -4 -4 -16 -17 -27 -14 -11 -25 -25 -25 -31 -1 -7 -20
-33 -43 -59 -39 -44 -43 -46 -61 -33 -11 8 -14 15 -8 15 7 0 12 6 12 13 0 15
163 187 176 187 15 0 75 46 68 53 -3 3 4 8 15 12 12 3 21 11 21 16 0 5 6 9 13
9 8 0 21 8 30 18 9 10 38 29 64 42 27 13 62 33 78 44 17 12 39 22 50 24 11 2
35 20 54 40 24 27 32 31 27 16 -13 -41 21 -36 55 9 49 63 52 65 34 22 -9 -22
-19 -46 -23 -54 -3 -9 -1 -12 6 -7 7 4 12 2 12 -5 0 -8 3 -9 13 0 8 6 17 8 20
4 4 -3 7 1 7 9 0 9 7 18 14 21 9 4 13 1 10 -6 -3 -8 6 -14 26 -15 23 -2 30 2
31 15 0 12 2 13 6 5 4 -10 9 -10 24 4 10 9 25 14 34 10 12 -4 27 12 57 59 59
94 76 86 21 -10 -24 -42 -31 -71 -10 -44 7 8 25 14 42 13 17 -1 39 6 49 15 18
15 19 15 13 -4 -6 -16 -3 -15 13 5 21 24 21 24 15 3 -6 -23 1 -28 29 -17 9 3
13 10 10 15 -3 5 1 9 9 9 8 0 14 -7 13 -16 -1 -14 13 -16 99 -16 55 1 121 1
146 2 45 0 47 2 84 57 54 81 97 155 92 159 -2 2 -41 4 -88 5 -46 1 -90 6 -96
11 -8 6 -13 7 -13 1z m-86 -192 c7 -10 -33 -23 -47 -14 -10 6 11 23 30 23 6 0
14 -4 17 -9z m-1415 -791 c-55 -78 -66 -88 -66 -55 0 18 4 25 13 21 8 -3 28
15 49 44 52 70 55 62 4 -10z m-146 -145 c-3 -9 -8 -14 -10 -11 -3 3 -2 9 2 15
9 16 15 13 8 -4z"/>
<path d="M5112 5508 c-5 -7 -22 -37 -37 -66 -15 -29 -31 -55 -36 -58 -14 -9
-11 -30 15 -86 36 -78 47 -127 36 -172 -7 -32 -6 -39 8 -43 10 -2 25 -17 34
-33 11 -20 22 -28 32 -24 12 5 16 0 16 -19 0 -16 7 -26 20 -30 11 -3 20 -1 20
4 0 11 31 -1 48 -18 8 -7 18 -10 24 -7 6 4 8 2 5 -3 -4 -6 1 -19 11 -30 9 -10
13 -13 8 -6 -6 10 -5 12 7 7 8 -3 18 -12 21 -21 4 -8 13 -13 20 -10 8 3 17 -1
20 -9 4 -10 2 -12 -6 -8 -7 4 -8 3 -4 -4 7 -12 36 -5 36 9 0 5 5 9 10 9 6 0
10 -6 10 -13 0 -7 7 -22 15 -33 13 -16 16 -17 26 -4 9 12 10 10 5 -9 -3 -17
-2 -21 6 -13 12 12 41 4 32 -9 -3 -5 -1 -16 4 -25 7 -13 13 -10 32 22 13 22
44 65 69 97 37 48 42 60 31 68 -8 5 -19 9 -23 9 -5 0 -6 10 -3 23 3 12 3 16 0
10 -9 -21 -27 -15 -21 7 3 11 1 18 -3 15 -14 -9 -38 5 -43 25 -3 13 -11 17
-24 14 -14 -4 -29 5 -50 29 -17 19 -41 38 -54 42 -13 4 -36 18 -51 31 -16 12
-38 26 -50 30 -24 7 -148 126 -148 141 0 4 -8 13 -19 20 -18 11 -30 54 -34
121 -2 37 -1 36 -15 20z"/>
<path d="M4271 5391 c-34 -59 -61 -110 -61 -113 0 -6 127 0 147 7 7 2 15 0 18
-5 3 -5 18 -8 33 -6 22 2 27 6 24 26 -1 12 4 30 11 39 8 9 32 45 54 81 l40 65
-81 -1 c-45 0 -91 3 -103 7 -20 7 -28 -2 -82 -100z"/>
<path d="M4905 5411 c3 -6 -9 -8 -29 -4 -40 6 -109 -23 -146 -62 -28 -29 -26
-31 22 -39 20 -3 56 -12 80 -20 23 -8 59 -17 78 -21 19 -4 39 -13 45 -19 17
-20 64 -37 71 -25 12 21 -94 199 -119 199 -4 0 -6 -4 -2 -9z"/>
<path d="M4660 5304 c0 -8 5 -12 10 -9 6 4 8 11 5 16 -9 14 -15 11 -15 -7z"/>
<path d="M3731 5261 c-23 -15 3 -20 29 -5 22 12 23 13 5 13 -11 1 -26 -3 -34
-8z"/>
<path d="M4686 5262 c-3 -5 1 -9 9 -9 8 0 12 4 9 9 -3 4 -7 8 -9 8 -2 0 -6 -4
-9 -8z"/>
<path d="M4298 5233 c7 -3 16 -2 19 1 4 3 -2 6 -13 5 -11 0 -14 -3 -6 -6z"/>
<path d="M3970 5210 c-211 -18 -428 -79 -613 -171 -339 -168 -636 -477 -891
-927 -105 -186 -322 -659 -366 -797 -7 -22 -16 -44 -20 -50 -4 -5 -13 -28 -20
-50 -6 -22 -23 -64 -36 -93 -13 -29 -24 -55 -24 -58 0 -3 17 -4 38 -3 20 1 55
-3 77 -9 22 -6 47 -10 55 -9 21 2 92 -12 110 -22 9 -5 36 -12 60 -16 24 -4 51
-11 60 -15 50 -25 70 -32 93 -33 14 -1 23 -5 21 -9 -2 -3 9 -9 26 -13 16 -4
32 -11 35 -16 13 -19 52 -7 95 31 24 22 47 37 50 34 3 -4 -14 -23 -37 -43 -24
-20 -43 -39 -43 -43 0 -4 20 -17 44 -29 l44 -22 104 89 c56 48 169 153 250
233 82 79 151 142 154 138 9 -8 -235 -246 -373 -365 -62 -53 -113 -100 -113
-104 0 -14 24 3 120 86 50 43 93 76 96 73 3 -3 -38 -42 -90 -88 -53 -45 -95
-83 -94 -85 11 -9 261 -154 276 -158 13 -5 50 22 137 99 65 58 123 105 130
105 6 0 100 89 208 199 108 109 197 195 197 190 0 -14 -426 -436 -532 -526
-120 -103 -118 -94 -23 -149 28 -15 52 -31 55 -34 16 -19 112 -71 123 -67 6 3
45 33 85 67 39 33 72 57 72 52 0 -9 -48 -55 -113 -109 -34 -29 -34 -35 2 -56
l28 -16 148 132 c237 213 245 219 245 209 0 -12 -174 -178 -287 -275 -46 -39
-83 -73 -83 -77 0 -10 256 -190 271 -190 4 0 49 35 100 78 139 116 149 124
148 115 0 -8 -189 -172 -215 -186 -8 -4 -14 -12 -14 -17 0 -21 24 -8 81 41 58
50 94 61 94 28 0 -9 -26 -37 -57 -63 -32 -26 -58 -50 -58 -54 0 -4 33 -27 73
-51 39 -24 77 -49 82 -56 6 -6 39 -29 75 -50 36 -21 83 -52 104 -67 51 -37 57
-30 86 87 12 50 36 133 52 185 61 194 88 285 88 294 0 5 -33 -22 -73 -60 -99
-94 -257 -227 -263 -222 -2 3 62 64 143 136 219 193 206 175 267 358 222 662
376 1166 376 1227 0 13 4 27 9 32 11 13 26 74 56 230 14 72 30 153 35 180 35
184 36 476 0 598 -35 124 -62 153 -160 173 -14 3 -34 9 -45 14 -20 9 -151 26
-305 40 -102 10 -313 10 -430 0z m826 -206 c-10 -14 -20 -23 -23 -21 -6 6 30
57 36 51 2 -2 -4 -15 -13 -30z m-67 -36 c-28 -53 -293 -448 -297 -444 -4 5
299 465 306 466 1 0 -3 -10 -9 -22z m-669 -282 c0 -2 -8 -10 -17 -17 -16 -13
-17 -12 -4 4 13 16 21 21 21 13z m-39 -53 c-19 -35 -161 -237 -161 -230 0 9
161 247 167 247 2 0 -1 -8 -6 -17z m-602 -255 c-100 -144 -361 -473 -454 -573
-62 -66 -37 -29 41 60 89 103 260 318 349 439 42 58 79 106 82 106 2 0 -6 -15
-18 -32z m81 28 c0 -2 -8 -10 -17 -17 -16 -13 -17 -12 -4 4 13 16 21 21 21 13z
m-220 -80 c0 -2 -8 -10 -17 -17 -16 -13 -17 -12 -4 4 13 16 21 21 21 13z m-80
-106 c-6 -11 -13 -20 -16 -20 -2 0 0 9 6 20 6 11 13 20 16 20 2 0 0 -9 -6 -20z
m-151 -142 c-110 -137 -181 -218 -193 -218 -5 0 11 21 35 48 39 41 198 232
224 268 5 7 11 11 13 9 2 -2 -33 -50 -79 -107z m131 108 c0 -2 -8 -10 -17 -17
-16 -13 -17 -12 -4 4 13 16 21 21 21 13z m190 -19 c0 -2 -10 -12 -22 -23 l-23
-19 19 23 c18 21 26 27 26 19z m-320 -21 c0 -2 -8 -10 -17 -17 -16 -13 -17
-12 -4 4 13 16 21 21 21 13z m70 -36 c-12 -16 -24 -30 -26 -30 -3 0 4 14 16
30 12 17 24 30 26 30 3 0 -4 -13 -16 -30z m150 -69 c-33 -44 -66 -83 -73 -87
-6 -4 4 12 23 37 20 24 51 63 69 87 18 23 35 42 37 42 3 0 -22 -36 -56 -79z
m-260 55 c0 -2 -8 -10 -17 -17 -16 -13 -17 -12 -4 4 13 16 21 21 21 13z m1130
-20 c0 -2 -8 -10 -17 -17 -16 -13 -17 -12 -4 4 13 16 21 21 21 13z m-1092 -58
c-175 -211 -364 -418 -380 -418 -5 0 31 42 80 93 121 126 176 187 261 290 40
48 75 87 78 87 3 0 -15 -23 -39 -52z m-88 19 c0 -2 -10 -12 -22 -23 l-23 -19
19 23 c18 21 26 27 26 19z m1138 -17 c-7 -10 -14 -17 -17 -15 -4 4 18 35 25
35 2 0 -1 -9 -8 -20z m-59 -79 c-31 -40 -48 -54 -33 -28 16 26 58 76 62 72 2
-2 -11 -22 -29 -44z m-1129 35 c0 -2 -8 -10 -17 -17 -16 -13 -17 -12 -4 4 13
16 21 21 21 13z m1830 -21 c0 -22 -448 -574 -524 -644 -59 -55 -19 7 72 112
106 122 269 321 376 460 37 48 70 87 72 87 2 0 4 -7 4 -15z m-1567 -37 c-11
-13 -65 -75 -120 -138 -123 -141 -212 -235 -183 -195 12 17 47 57 79 90 31 33
96 106 145 163 48 56 91 102 94 102 3 0 -4 -10 -15 -22z m1091 -40 c-84 -111
-283 -353 -389 -473 -110 -125 -115 -130 -115 -120 0 6 43 60 96 120 110 125
279 331 373 453 36 45 68 82 73 82 5 0 -12 -28 -38 -62z m-983 19 c-10 -9 -11
-8 -5 6 3 10 9 15 12 12 3 -3 0 -11 -7 -18z m112 -51 c-10 -13 -20 -22 -22
-20 -4 4 29 44 36 44 2 0 -4 -11 -14 -24z m553 -21 c-20 -25 -53 -66 -73 -92
-73 -94 -210 -250 -167 -192 37 51 267 329 272 329 2 0 -12 -20 -32 -45z
m-766 -48 c0 -2 -10 -12 -22 -23 l-23 -19 19 23 c18 21 26 27 26 19z m140 -20
c0 -2 -15 -16 -32 -33 l-33 -29 29 33 c28 30 36 37 36 29z m-200 -51 c0 -2 -8
-10 -17 -17 -16 -13 -17 -12 -4 4 13 16 21 21 21 13z m164 -60 c-22 -24 -41
-43 -43 -41 -2 2 14 24 35 49 22 24 41 43 43 41 2 -2 -14 -24 -35 -49z m540
-33 c-196 -234 -511 -570 -522 -559 -3 3 63 75 145 160 83 85 208 223 279 305
71 83 132 151 137 151 5 0 -12 -26 -39 -57z m-644 -16 c0 -2 -15 -16 -32 -33
l-33 -29 29 33 c28 30 36 37 36 29z m20 -45 c-83 -90 -340 -348 -395 -395 -33
-29 23 30 125 130 102 100 210 211 240 246 30 35 57 62 59 60 3 -2 -11 -20
-29 -41z m-920 18 c-6 -11 -13 -20 -16 -20 -2 0 0 9 6 20 6 11 13 20 16 20 2
0 0 -9 -6 -20z m-39 -97 c-12 -20 -14 -14 -5 12 4 9 9 14 11 11 3 -2 0 -13 -6
-23z m669 13 c0 -9 -47 -56 -56 -56 -4 0 5 14 21 30 28 30 35 34 35 26z m380
-29 c0 -2 -10 -12 -22 -23 l-23 -19 19 23 c18 21 26 27 26 19z m1180 -24 c0
-15 -254 -296 -413 -459 -101 -104 -164 -161 -173 -157 -7 3 -17 -2 -20 -11
-3 -9 -12 -16 -20 -16 -7 0 28 42 79 93 113 114 310 324 407 435 40 45 78 82
84 82 6 0 17 9 24 20 12 20 32 27 32 13z m-570 -426 c0 -2 -17 -19 -37 -38
-34 -30 -35 -31 -13 -4 29 35 50 52 50 42z m-480 -11 c0 -2 -8 -10 -17 -17
-16 -13 -17 -12 -4 4 13 16 21 21 21 13z m-40 -40 c0 -2 -8 -10 -17 -17 -16
-13 -17 -12 -4 4 13 16 21 21 21 13z m-470 -50 c0 -3 -4 -8 -10 -11 -5 -3 -10
-1 -10 4 0 6 5 11 10 11 6 0 10 -2 10 -4z m360 -50 c0 -2 -8 -10 -17 -17 -16
-13 -17 -12 -4 4 13 16 21 21 21 13z m359 -113 c-6 -10 -26 -29 -43 -42 -26
-21 -25 -18 9 17 42 45 52 52 34 25z m-259 -3 c0 -5 -5 -10 -11 -10 -5 0 -7 5
-4 10 3 6 8 10 11 10 2 0 4 -4 4 -10z"/>
<path d="M4658 5193 c7 -3 16 -2 19 1 4 3 -2 6 -13 5 -11 0 -14 -3 -6 -6z"/>
<path d="M3430 5160 c-6 -11 -8 -20 -6 -20 3 0 10 9 16 20 6 11 8 20 6 20 -3
0 -10 -9 -16 -20z"/>
<path d="M5025 5160 c3 -5 8 -10 11 -10 2 0 4 5 4 10 0 6 -5 10 -11 10 -5 0
-7 -4 -4 -10z"/>
<path d="M3349 5123 c-13 -16 -12 -17 4 -4 9 7 17 15 17 17 0 8 -8 3 -21 -13z"/>
<path d="M4973 5129 c-6 -6 -9 -17 -7 -24 3 -7 1 -16 -5 -20 -7 -3 -11 2 -11
14 0 12 -7 21 -15 21 -21 0 -19 -13 9 -75 14 -29 28 -72 31 -96 4 -24 9 -46
11 -48 4 -4 5 4 8 64 1 11 -3 26 -8 33 -4 6 -5 12 -2 12 4 0 2 9 -3 19 -8 14
-6 25 10 45 11 14 17 31 13 37 -5 8 -3 9 6 4 8 -5 11 -3 8 6 -6 18 -30 23 -45
8z"/>
<path d="M5050 5130 c0 -5 5 -10 10 -10 6 0 10 5 10 10 0 6 -4 10 -10 10 -5 0
-10 -4 -10 -10z"/>
<path d="M3231 5114 c0 -11 3 -14 6 -6 3 7 2 16 -1 19 -3 4 -6 -2 -5 -13z"/>
<path d="M3299 5093 c-13 -16 -12 -17 4 -4 16 13 21 21 13 21 -2 0 -10 -8 -17
-17z"/>
<path d="M3140 5064 c0 -8 -4 -12 -10 -9 -5 3 -27 -6 -47 -22 -21 -15 -40 -28
-42 -29 -1 -2 0 -8 4 -15 6 -8 13 -5 24 10 10 12 24 23 31 24 22 4 39 16 50
38 7 13 7 19 0 19 -5 0 -10 -7 -10 -16z"/>
<path d="M5028 5063 c-13 -3 -15 -10 -9 -26 24 -64 31 -103 37 -212 11 -227
-35 -555 -133 -935 -13 -52 -31 -122 -39 -155 -32 -131 -149 -517 -245 -809
-27 -82 -49 -158 -49 -170 0 -12 -4 -26 -9 -32 -19 -20 -216 -632 -207 -642 4
-3 25 12 49 34 92 86 107 98 107 83 0 -8 -38 -45 -84 -84 -47 -38 -87 -77 -91
-85 -4 -8 -18 -53 -31 -99 -22 -79 -22 -85 -6 -97 26 -20 177 -94 190 -94 7 0
12 -4 12 -10 0 -18 30 -10 57 15 15 13 29 22 32 20 2 -3 -8 -14 -22 -26 -15
-11 -27 -25 -27 -30 0 -22 34 -5 97 48 38 31 92 76 121 100 28 25 52 41 52 36
0 -8 -54 -54 -172 -148 -32 -26 -58 -50 -58 -56 0 -25 42 0 145 86 63 52 116
95 119 95 24 0 -10 -38 -99 -110 -57 -47 -105 -88 -105 -92 0 -19 27 -4 84 45
138 119 176 148 176 135 0 -7 -50 -53 -110 -102 -61 -50 -109 -95 -107 -100 2
-6 19 -16 38 -22 19 -6 51 -18 71 -27 21 -9 42 -17 48 -17 6 0 18 -4 28 -9 30
-16 90 -41 98 -41 4 0 17 8 28 17 16 14 18 15 8 2 -16 -21 -7 -27 73 -58 33
-13 82 -32 110 -43 27 -11 54 -21 60 -23 15 -3 44 -15 92 -36 24 -10 49 -19
57 -19 8 0 18 -4 21 -10 3 -5 13 -10 22 -10 13 0 63 -19 103 -40 41 -20 81
-22 103 -3 l22 18 -19 -22 c-18 -22 -18 -22 15 -36 131 -54 180 -69 193 -58
11 9 14 8 12 -6 -1 -11 11 -20 36 -27 20 -6 40 -14 44 -19 4 -4 14 -7 21 -7 8
0 33 -9 55 -20 23 -11 46 -20 51 -20 5 0 24 -7 43 -16 38 -18 48 -14 50 19 1
12 7 56 14 97 7 41 14 89 16 105 2 17 8 64 14 105 16 109 26 194 40 334 5 55
8 102 5 104 -3 3 -73 -63 -157 -145 -273 -268 -416 -392 -429 -371 -4 7 -5 16
-1 19 237 204 334 293 508 464 92 90 92 90 98 150 6 60 29 514 28 547 0 10 4
20 9 23 5 4 7 9 5 13 -5 10 -14 105 -22 237 -16 292 -54 609 -77 631 -2 3 -15
-9 -27 -26 -27 -37 -209 -260 -254 -310 -17 -19 -73 -83 -125 -142 -52 -60
-98 -108 -102 -108 -26 0 -14 29 33 78 58 61 238 272 381 446 78 94 88 110 82
134 -5 18 -9 22 -13 12 -3 -8 -13 -23 -24 -34 -10 -11 -18 -27 -18 -37 0 -9
-24 -41 -52 -71 -29 -31 -68 -73 -86 -94 -17 -22 -36 -43 -42 -49 -5 -5 -51
-58 -102 -117 -78 -92 -118 -126 -118 -103 0 3 53 67 118 143 99 116 248 294
314 378 18 22 16 84 -3 84 -4 0 -22 -20 -40 -45 -18 -25 -36 -45 -41 -45 -18
0 -6 24 32 67 22 25 40 54 40 63 0 10 -15 62 -34 116 -98 289 -218 512 -382
714 -85 106 -294 300 -388 362 -22 15 -41 33 -41 40 0 6 -10 12 -22 13 -20 1
-103 52 -103 62 0 2 5 1 12 -3 7 -4 8 -3 4 5 -4 6 -11 9 -16 6 -5 -3 -20 -1
-34 5 -18 7 -24 14 -20 27 4 14 4 15 -4 4 -8 -11 -19 -8 -58 14 -27 15 -53 32
-59 37 -7 8 -6 8 4 3 9 -5 12 -4 7 3 -4 7 -8 11 -9 11 -1 -1 -10 -3 -19 -6z
m451 -395 c-7 -12 -42 -63 -77 -113 -36 -49 -75 -104 -86 -122 -21 -32 -43
-45 -33 -20 7 19 201 286 205 282 2 -2 -2 -14 -9 -27z m-387 -348 c-9 -16 -19
-25 -21 -19 -3 9 26 49 35 49 2 0 -5 -13 -14 -30z m755 -8 c-10 -10 -17 -22
-17 -25 0 -9 -288 -390 -403 -534 -79 -99 -107 -127 -107 -108 0 5 179 235
190 245 10 8 224 292 263 348 47 67 79 103 85 97 3 -3 -2 -13 -11 -23z m111
-459 c-35 -44 -103 -131 -153 -194 -167 -212 -329 -402 -333 -391 -2 7 43 67
100 134 117 139 269 328 373 466 39 51 71 86 73 78 2 -8 -25 -50 -60 -93z
m-284 -58 c-41 -51 -57 -61 -22 -14 13 17 27 37 33 45 5 8 14 14 18 14 5 0 -8
-20 -29 -45z m-96 -123 c-64 -83 -267 -327 -326 -393 -23 -25 -52 -59 -63 -73
-12 -15 -24 -25 -26 -22 -3 3 37 54 88 113 52 59 114 133 139 163 25 30 47 57
50 60 3 3 34 41 70 85 65 82 111 135 117 135 2 0 -20 -31 -49 -68z m102 3 c0
-3 -11 -18 -24 -33 -14 -15 -36 -43 -49 -63 -14 -20 -36 -50 -50 -65 -13 -16
-73 -87 -133 -159 -59 -71 -126 -149 -149 -173 -48 -52 -60 -77 -19 -42 50 44
8 -6 -157 -185 -195 -211 -384 -405 -395 -405 -5 0 42 51 104 113 62 63 112
120 110 127 -2 8 5 14 14 15 15 0 81 67 251 254 27 29 46 56 43 59 -3 3 -7 3
-9 1 -17 -26 -171 -188 -174 -185 -5 5 52 72 237 281 105 119 328 385 365 437
18 25 35 36 35 23z m-1055 -905 c-10 -11 -20 -18 -23 -15 -7 6 18 35 31 35 5
0 2 -9 -8 -20z m565 -117 c-237 -240 -503 -493 -520 -493 -24 0 -2 24 140 156
82 76 218 210 302 297 103 106 155 154 162 147 7 -7 -20 -41 -84 -107z m-110
-16 c0 -2 -15 -16 -32 -33 l-33 -29 29 33 c28 30 36 37 36 29z m284 -316
c-258 -254 -402 -386 -412 -377 -7 8 3 17 178 178 52 47 172 163 265 257 94
94 172 166 174 159 2 -6 -90 -104 -205 -217z m570 203 c11 -28 -605 -628 -624
-608 -5 5 75 89 193 204 111 107 249 245 307 306 58 61 108 112 111 113 4 0
10 -6 13 -15z m-1030 -66 c-10 -13 -31 -34 -48 -47 -21 -16 -16 -9 14 22 48
51 61 60 34 25z m-84 -82 c0 -2 -8 -10 -17 -17 -16 -13 -17 -12 -4 4 13 16 21
21 21 13z m150 -80 c0 -2 -8 -10 -17 -17 -16 -13 -17 -12 -4 4 13 16 21 21 21
13z m-341 -99 c-2 -1 -15 -11 -29 -22 l-25 -20 19 23 c11 12 24 22 29 22 6 0
8 -1 6 -3z m1256 -225 c-154 -151 -262 -253 -422 -394 -18 -16 -33 -25 -33
-21 0 5 62 62 137 128 75 66 216 197 312 292 97 95 178 172 181 172 3 0 -76
-79 -175 -177z m-1345 144 c0 -2 -7 -7 -16 -10 -8 -3 -12 -2 -9 4 6 10 25 14
25 6z m470 -10 c0 -2 -8 -10 -17 -17 -16 -13 -17 -12 -4 4 13 16 21 21 21 13z
m-50 -40 c0 -2 -8 -10 -17 -17 -16 -13 -17 -12 -4 4 13 16 21 21 21 13z m-280
-30 c0 -2 -8 -10 -17 -17 -16 -13 -17 -12 -4 4 13 16 21 21 21 13z m174 -70
c-21 -19 -41 -33 -42 -31 -5 5 61 64 72 65 5 0 -8 -15 -30 -34z m92 25 c-4 -5
-30 -28 -59 -52 l-52 -42 50 51 c44 46 76 68 61 43z m-166 -85 c0 -2 -24 -23
-52 -46 l-53 -42 50 46 c50 46 55 49 55 42z m760 -119 c0 -2 -15 -16 -32 -33
l-33 -29 29 33 c28 30 36 37 36 29z m-121 -113 c-18 -20 -47 -45 -64 -56 -16
-11 -3 5 30 36 68 63 85 73 34 20z m-309 -58 c0 -3 -4 -8 -10 -11 -5 -3 -10
-1 -10 4 0 6 5 11 10 11 6 0 10 -2 10 -4z m-30 -20 c0 -2 -8 -10 -17 -17 -16
-13 -17 -12 -4 4 13 16 21 21 21 13z m210 -29 c0 -2 -12 -14 -27 -28 l-28 -24
24 28 c23 25 31 32 31 24z m788 -191 c-35 -29 -65 -52 -67 -50 -3 2 15 19 92
87 11 9 24 17 29 17 5 0 -19 -24 -54 -54z m-79 -68 c-2 -2 -17 -14 -34 -28
l-30 -25 24 28 c14 15 29 27 34 27 6 0 8 -1 6 -2z"/>
<path d="M3144 4998 l-19 -23 23 19 c21 18 27 26 19 26 -2 0 -12 -10 -23 -22z"/>
<path d="M3098 4973 c-19 -23 -31 -43 -24 -43 2 0 14 14 26 30 23 33 22 40 -2
13z"/>
<path d="M3026 4918 c-20 -24 -36 -37 -36 -30 0 8 -16 -6 -36 -30 -21 -23 -42
-41 -48 -40 -6 2 -8 0 -4 -4 9 -9 -11 -36 -22 -29 -4 3 -27 -19 -51 -48 -24
-29 -48 -54 -54 -55 -5 -1 -10 -5 -10 -9 -1 -19 -27 -53 -36 -48 -5 4 -8 3 -7
-2 5 -15 -34 -63 -46 -56 -6 3 -8 3 -4 -2 11 -11 -11 -47 -24 -39 -6 4 -8 3
-5 -2 3 -6 -10 -30 -30 -54 -39 -50 -69 -103 -36 -64 10 12 76 93 147 180 71
88 133 158 138 156 5 -1 7 1 4 6 -2 4 -1 14 5 22 7 13 9 13 9 0 1 -15 90 78
90 93 0 5 4 6 9 2 11 -6 49 28 74 68 25 40 14 33 -27 -15z"/>
<path d="M5654 4882 c-16 -30 -41 -64 -56 -75 -16 -12 -28 -26 -28 -31 0 -17
59 -106 70 -106 5 0 7 7 4 15 -4 8 -1 15 4 15 6 0 32 -33 58 -72 47 -74 112
-156 170 -214 18 -17 35 -41 39 -53 3 -11 11 -21 16 -21 6 0 7 -4 4 -10 -3 -5
1 -10 10 -10 11 0 15 -5 11 -16 -3 -8 -2 -13 3 -10 16 10 44 -39 68 -119 4
-11 17 -33 30 -48 12 -16 23 -37 23 -48 0 -11 5 -17 10 -14 6 3 10 -1 10 -10
0 -22 29 -84 49 -109 9 -10 15 -21 14 -25 -3 -6 22 -91 37 -126 5 -11 13 -33
17 -49 5 -17 13 -31 19 -33 5 -1 28 24 52 56 40 57 52 94 33 105 -5 4 -19 36
-31 73 -12 37 -27 78 -33 90 -12 21 -13 20 -47 -32 -33 -52 -50 -67 -50 -45 0
6 9 19 19 29 47 47 52 64 36 111 -8 23 -15 51 -15 61 0 11 -4 19 -8 19 -5 0
-23 30 -41 68 -19 37 -40 74 -48 84 -21 23 -22 51 -4 66 12 10 13 15 3 19 -25
10 -43 35 -37 54 4 11 2 19 -4 19 -6 0 -19 17 -28 39 -12 27 -21 37 -33 34
-12 -3 -19 3 -23 19 -4 13 -16 34 -28 47 -12 13 -22 36 -23 52 -1 23 -4 27
-22 23 -17 -4 -24 1 -32 25 -6 17 -24 37 -41 46 -17 8 -31 21 -31 28 0 7 -26
40 -59 73 l-58 61 -29 -55z m47 -175 c-10 -9 -11 -8 -5 6 3 10 9 15 12 12 3
-3 0 -11 -7 -18z m149 -118 c0 -6 14 -29 31 -50 17 -21 27 -39 22 -39 -4 0
-19 17 -32 37 -16 24 -25 32 -31 24 -4 -7 -11 -13 -16 -13 -13 0 -7 -16 21
-53 37 -48 30 -50 -14 -3 l-39 42 22 33 c21 33 36 42 36 22z m100 -165 c0 -8
-7 -14 -15 -14 -17 0 -18 2 -9 24 7 18 24 12 24 -10z m31 -54 c5 0 9 -5 9 -12
0 -6 -8 -3 -20 7 -11 10 -16 23 -12 29 4 7 8 5 10 -6 2 -10 8 -18 13 -18z m89
-11 c0 -5 -4 -9 -10 -9 -5 0 -10 7 -10 16 0 8 5 12 10 9 6 -3 10 -10 10 -16z
m-33 -45 c3 -8 -1 -22 -10 -31 -13 -14 -16 -13 -22 6 -11 35 19 59 32 25z m80
-236 c-3 -8 -6 -5 -6 6 -1 11 2 17 5 13 3 -3 4 -12 1 -19z"/>
<path d="M2769 4783 c-13 -16 -12 -17 4 -4 9 7 17 15 17 17 0 8 -8 3 -21 -13z"/>
<path d="M2433 4434 c-7 -7 -13 -19 -13 -26 0 -7 7 -2 16 10 18 26 16 37 -3
16z"/>
<path d="M2540 4370 c0 -5 5 -10 11 -10 5 0 7 5 4 10 -3 6 -8 10 -11 10 -2 0
-4 -4 -4 -10z"/>
<path d="M2493 4285 c-40 -54 -43 -68 -5 -23 46 55 55 68 46 68 -5 -1 -24 -21
-41 -45z"/>
<path d="M2410 4220 c0 -6 -10 -14 -23 -19 -13 -5 -24 -15 -25 -23 -2 -7 -3
-24 -5 -38 -3 -38 -17 -52 -43 -47 -31 6 -37 -5 -19 -29 13 -18 15 -17 44 16
16 19 28 42 25 51 -2 9 3 22 11 29 26 21 57 70 46 70 -6 0 -11 -5 -11 -10z
m-90 -144 c0 -3 -4 -8 -10 -11 -5 -3 -10 -1 -10 4 0 6 5 11 10 11 6 0 10 -2
10 -4z"/>
<path d="M2415 4153 l-17 -28 23 22 c12 12 20 25 17 28 -3 3 -13 -7 -23 -22z"/>
<path d="M2265 4030 c-3 -5 1 -10 10 -10 9 0 13 5 10 10 -3 6 -8 10 -10 10 -2
0 -7 -4 -10 -10z"/>
<path d="M2264 3998 c-11 -17 6 -22 22 -7 13 14 13 16 -1 16 -9 0 -18 -4 -21
-9z"/>
<path d="M2309 3953 c-13 -16 -12 -17 4 -4 16 13 21 21 13 21 -2 0 -10 -8 -17
-17z"/>
<path d="M2249 3921 c-29 -30 -32 -46 -3 -19 15 15 26 29 23 31 -2 3 -11 -3
-20 -12z"/>
<path d="M2204 3828 l-19 -23 23 19 c21 18 27 26 19 26 -2 0 -12 -10 -23 -22z"/>
<path d="M2161 3824 c0 -11 3 -14 6 -6 3 7 2 16 -1 19 -3 4 -6 -2 -5 -13z"/>
<path d="M6293 3728 c-47 -61 -51 -70 -41 -93 l11 -24 34 44 c35 47 48 54 56
33 2 -7 8 -2 11 12 4 14 1 41 -6 61 l-13 36 -52 -69z"/>
<path d="M2159 3743 c-13 -16 -12 -17 4 -4 9 7 17 15 17 17 0 8 -8 3 -21 -13z"/>
<path d="M6280 3561 c0 -5 7 -14 15 -21 11 -9 12 -17 5 -30 -6 -10 -8 -25 -6
-32 2 -7 7 -26 10 -41 4 -17 11 -25 18 -21 8 5 9 0 4 -17 -11 -35 -8 -74 10
-119 9 -22 14 -58 12 -80 -2 -22 -1 -40 2 -39 3 0 19 18 37 40 30 38 31 40 16
70 -14 27 -14 35 -1 68 10 24 13 53 9 81 -6 41 -7 43 -23 27 -9 -9 -21 -17
-26 -17 -13 0 -22 39 -11 46 5 3 4 14 -2 26 l-11 21 -15 -24 c-12 -21 -13 -21
-8 -3 6 23 -12 74 -27 74 -4 0 -8 -4 -8 -9z"/>
<path d="M1968 3485 c-35 -26 -45 -39 -41 -54 4 -17 9 -19 25 -10 10 6 24 22
29 37 6 15 18 35 26 44 23 26 14 22 -39 -17z"/>
<path d="M1945 3397 c-44 -32 -57 -46 -53 -57 2 -6 25 10 51 35 51 48 52 59 2
22z"/>
<path d="M1880 3304 c-19 -13 -50 -34 -68 -47 -29 -23 -30 -25 -12 -30 28 -7
145 84 123 96 -5 2 -24 -6 -43 -19z"/>
<path d="M1830 3208 c-157 -105 -289 -183 -429 -254 -110 -55 -127 -61 -133
-46 -4 10 -7 11 -7 4 -1 -7 -5 -10 -11 -7 -5 3 -10 2 -10 -4 0 -5 -18 -12 -40
-16 -22 -4 -40 -11 -40 -16 0 -10 -33 -25 -66 -31 -11 -2 -24 -10 -31 -18 -7
-8 -13 -11 -13 -7 0 4 -10 2 -22 -5 -23 -13 -28 -14 -58 -17 -13 -1 -13 -2 0
-11 13 -8 13 -10 0 -14 -8 -3 -69 -26 -135 -52 -169 -65 -363 -134 -407 -146
-27 -7 -38 -16 -38 -29 0 -11 -7 -19 -15 -19 -9 0 -21 -11 -27 -25 -6 -14 -17
-25 -25 -25 -7 0 -13 -6 -13 -14 0 -8 -10 -18 -22 -22 -13 -4 -28 -13 -33 -21
-6 -8 -20 -15 -33 -16 -23 -1 -25 -6 -22 -49 1 -24 -3 -28 -37 -33 -21 -4 -43
-8 -49 -10 -12 -3 -24 -51 -24 -92 0 -21 3 -23 23 -17 12 3 28 11 35 16 15 13
16 32 0 22 -6 -4 -8 -3 -5 3 4 6 55 26 113 44 91 29 110 39 126 64 18 30 18
30 -5 36 -21 6 -20 7 10 19 20 7 33 19 33 30 0 19 27 46 37 37 3 -4 -2 -9 -11
-13 -9 -3 -16 -12 -16 -20 0 -11 7 -13 28 -8 15 4 29 11 30 16 2 4 8 6 13 2
10 -6 39 19 39 34 0 15 -40 22 -69 11 -18 -7 -23 -7 -15 0 10 11 93 43 274
106 108 37 170 63 170 70 0 3 -12 3 -27 0 -27 -5 -27 -5 -5 5 13 5 28 7 33 4
5 -3 19 -2 30 1 15 5 18 9 9 15 -8 5 -3 10 15 14 14 4 31 4 37 0 7 -4 8 -3 4
4 -4 7 4 16 21 23 15 6 40 17 55 25 14 8 33 14 41 14 8 0 20 7 27 15 7 8 25
15 41 15 18 0 32 7 39 20 6 11 17 20 24 20 7 0 68 27 134 60 67 33 124 60 126
60 5 0 156 86 215 123 19 11 31 16 27 9 -4 -6 -65 -46 -136 -88 -72 -42 -130
-79 -130 -81 0 -3 34 14 76 36 41 23 82 41 90 41 8 0 14 4 14 9 0 5 16 12 36
16 44 8 84 25 84 36 0 5 31 29 68 53 66 44 114 86 97 86 -4 0 0 10 11 21 19
22 19 22 -3 11 -12 -7 -23 -15 -25 -20 -1 -4 -21 -19 -43 -32 -37 -22 -35 -19
20 34 33 32 55 55 48 52 -6 -4 -13 -2 -15 3 -1 5 -50 -23 -108 -61z m2 -60
c-6 -7 -25 -22 -44 -32 -36 -20 -30 -12 16 22 32 25 44 28 28 10z m-1482 -768
c0 -5 -5 -10 -11 -10 -5 0 -7 5 -4 10 3 6 8 10 11 10 2 0 4 -4 4 -10z m20 -35
c-7 -9 -15 -13 -17 -11 -7 7 7 26 19 26 6 0 6 -6 -2 -15z"/>
<path d="M6419 3177 c-53 -63 -58 -76 -45 -125 6 -24 15 -40 20 -35 5 4 3 -3
-5 -17 -11 -20 -13 -122 -14 -507 0 -266 1 -483 3 -483 1 0 21 19 42 43 l40
42 1 175 c1 362 -1 944 -4 946 -2 2 -19 -16 -38 -39z"/>
<path d="M1862 3106 c-46 -33 -53 -43 -14 -20 19 10 38 25 44 32 15 17 8 14
-30 -12z"/>
<path d="M1416 2895 c-11 -8 -16 -15 -10 -15 5 0 18 7 28 15 11 8 16 15 10 15
-5 0 -18 -7 -28 -15z"/>
<path d="M1810 2872 c-30 -15 -86 -40 -125 -56 -59 -24 -248 -105 -320 -136
-20 -9 -243 -104 -280 -120 -11 -4 -40 -17 -65 -28 -25 -11 -94 -41 -155 -67
-60 -25 -123 -52 -140 -60 -30 -13 -78 -34 -145 -62 -134 -55 -220 -96 -220
-104 0 -4 17 -18 38 -30 58 -36 131 -97 204 -171 49 -50 71 -67 85 -62 14 4
15 4 4 -4 -10 -8 18 -47 132 -178 79 -93 165 -189 190 -212 43 -43 45 -43 73
-29 16 8 97 40 179 72 83 32 248 100 369 151 120 52 222 92 226 89 9 -6 351
158 458 219 66 37 98 47 72 22 -42 -40 -701 -355 -753 -359 -12 -1 -137 -48
-277 -103 -140 -56 -263 -104 -272 -107 -26 -9 -22 -18 35 -66 29 -24 102 -91
162 -150 131 -126 176 -163 190 -157 196 81 512 218 683 296 48 23 52 23 52
11 0 -12 -508 -239 -697 -311 -30 -11 -45 -30 -25 -30 4 0 23 -15 42 -33 19
-18 56 -50 82 -70 46 -37 47 -38 77 -23 16 9 76 36 133 60 57 24 184 81 282
125 98 45 181 79 184 76 3 -3 3 -7 1 -8 -14 -13 -471 -216 -556 -249 -56 -20
-64 -31 -37 -46 12 -7 71 15 217 79 110 49 202 87 205 84 5 -5 -66 -39 -265
-125 -68 -29 -123 -56 -123 -59 1 -15 196 -141 218 -141 10 0 91 34 182 76 91
42 184 85 208 96 24 11 41 22 39 25 -3 2 -25 -6 -49 -18 -71 -36 -281 -129
-292 -129 -23 0 18 22 189 100 99 45 269 127 378 181 187 94 247 118 202 83
-11 -9 -92 -52 -180 -95 -88 -44 -148 -77 -132 -73 15 3 27 3 27 0 0 -8 -244
-126 -428 -206 -143 -63 -143 -56 7 -123 47 -20 93 -41 101 -46 9 -5 31 -12
50 -16 19 -4 40 -11 45 -15 9 -6 50 -16 105 -25 8 -2 40 -8 70 -15 30 -7 69
-13 85 -15 17 -1 53 -5 80 -9 30 -4 62 -3 78 3 18 7 26 7 22 1 -12 -20 182 -8
335 20 226 41 282 57 530 153 96 37 283 127 412 198 206 114 565 349 721 472
l38 30 -33 15 c-18 8 -55 26 -83 40 -95 46 -87 46 -162 -11 -102 -79 -234
-170 -239 -165 -2 3 61 52 140 109 80 57 145 110 146 117 0 6 -2 12 -5 12 -3
0 -50 -33 -104 -74 -157 -117 -222 -159 -232 -149 -6 6 6 20 33 38 89 58 267
190 272 202 9 22 -66 -8 -94 -37 -15 -16 -112 -82 -115 -78 -2 2 32 30 76 62
43 32 79 62 79 66 0 9 -34 32 -109 72 -31 17 -62 35 -69 41 -7 5 -27 18 -45
27 -17 10 -31 23 -29 30 1 6 -2 9 -7 5 -6 -3 -28 6 -50 21 -22 14 -46 24 -53
21 -7 -3 -53 -35 -102 -71 -49 -36 -93 -66 -98 -66 -21 0 -1 20 78 75 47 33
90 65 96 72 7 9 -6 22 -49 49 -121 77 -193 125 -193 128 0 2 11 4 24 4 30 0
67 35 55 53 -4 8 -16 14 -25 14 -9 0 -22 9 -28 20 -6 11 -12 22 -14 24 -1 2
-12 5 -25 6 -12 2 -21 8 -19 15 3 11 0 11 -12 1 -8 -7 -12 -19 -9 -27 6 -16
19 -18 28 -4 9 15 25 12 25 -5 0 -8 -4 -15 -10 -15 -5 0 -7 -6 -4 -14 3 -8 14
-13 24 -11 11 2 22 -6 29 -21 7 -15 7 -23 1 -19 -5 3 -10 2 -10 -3 0 -25 -86
5 -128 45 -7 7 -18 13 -23 13 -5 0 -64 -41 -131 -91 -142 -106 -293 -209 -306
-209 -5 0 -15 6 -21 14 -9 11 13 31 121 107 216 151 295 213 275 217 -10 2
-26 -2 -35 -9 -16 -12 -16 -12 0 5 16 18 13 21 -45 62 -34 25 -69 47 -77 51
-8 4 -35 21 -60 38 -89 62 -85 62 -148 13 -70 -55 -82 -62 -82 -49 0 5 27 29
60 53 33 23 60 45 60 48 0 3 -14 14 -30 23 l-30 18 -113 -84 c-138 -103 -267
-190 -273 -184 -2 2 22 21 53 42 116 77 314 228 310 238 -3 9 -54 43 -102 67
-11 6 -47 28 -80 49 -33 22 -65 40 -71 40 -7 1 -56 -33 -110 -75 -150 -115
-184 -138 -196 -126 -6 6 2 17 24 32 18 13 81 59 140 103 120 88 120 89 36
128 -24 11 -63 33 -88 48 -26 15 -70 36 -98 45 l-53 18 -42 -34 c-72 -59 -269
-190 -275 -184 -3 3 -3 7 -1 9 2 2 49 34 104 72 55 37 124 86 154 108 l54 40
-59 28 c-32 16 -64 29 -71 29 -6 0 -63 -36 -125 -79 -147 -102 -296 -193 -311
-188 -6 2 29 27 79 57 49 29 142 90 207 134 131 90 132 92 32 120 -33 10 -69
21 -80 26 -11 4 -47 13 -80 20 -33 6 -74 15 -91 21 -17 5 -82 9 -145 8 -103 0
-119 -3 -169 -27z m460 -96 c0 -2 -8 -10 -17 -17 -16 -13 -17 -12 -4 4 13 16
21 21 21 13z m-670 -41 c0 -6 -56 -35 -67 -35 -9 0 48 38 60 39 4 1 7 -1 7 -4z
m600 -10 c0 -2 -10 -9 -22 -15 -22 -11 -22 -10 -4 4 21 17 26 19 26 11z m-694
-40 c-11 -8 -24 -15 -30 -15 -5 0 -1 7 10 15 10 8 24 14 29 14 6 0 1 -6 -9
-14z m634 0 c0 -2 -10 -9 -22 -15 -22 -11 -22 -10 -4 4 21 17 26 19 26 11z
m-150 -19 c0 -23 -650 -339 -666 -324 -1 2 43 23 99 47 141 61 365 171 467
230 81 47 100 56 100 47z m-570 -21 c-14 -8 -29 -14 -35 -14 -5 0 1 6 15 14
14 8 30 14 35 14 6 0 -1 -6 -15 -14z m645 -5 c-3 -6 -21 -17 -38 -26 -36 -19
-31 -9 10 17 34 21 36 22 28 9z m515 6 c0 -2 -8 -10 -17 -17 -16 -13 -17 -12
-4 4 13 16 21 21 21 13z m-1215 -26 c-3 -5 -14 -10 -23 -10 -15 0 -15 2 -2 10
20 13 33 13 25 0z m625 -25 c0 -2 -10 -9 -22 -15 -22 -11 -22 -10 -4 4 21 17
26 19 26 11z m-780 -39 c0 -2 -7 -7 -16 -10 -8 -3 -12 -2 -9 4 6 10 25 14 25
6z m1225 -16 c-3 -5 -16 -15 -28 -21 -21 -10 -21 -9 2 10 25 23 36 27 26 11z
m-1390 -50 c-3 -5 -12 -10 -18 -10 -7 0 -6 4 3 10 19 12 23 12 15 0z m-75 -30
c-8 -5 -19 -10 -25 -10 -5 0 -3 5 5 10 8 5 20 10 25 10 6 0 3 -5 -5 -10z
m1680 0 c0 -5 -5 -10 -11 -10 -5 0 -7 5 -4 10 3 6 8 10 11 10 2 0 4 -4 4 -10z
m-1720 -14 c0 -6 -132 -57 -137 -53 -2 3 24 16 59 30 65 26 78 30 78 23z
m1350 0 c0 -2 -12 -11 -27 -20 l-28 -17 24 20 c23 21 31 25 31 17z m-310 -47
c-54 -36 -388 -194 -396 -186 -2 1 58 32 134 67 75 35 164 78 197 97 56 30 98
45 65 22z m585 1 c3 -5 -1 -10 -10 -10 -9 0 -13 5 -10 10 3 6 8 10 10 10 2 0
7 -4 10 -10z m-1804 -25 c-18 -8 -36 -15 -40 -15 -13 1 45 29 59 29 8 0 0 -6
-19 -14z m-66 -25 c-27 -12 -43 -12 -25 0 8 5 22 9 30 9 10 0 8 -3 -5 -9z
m2325 6 c0 -2 -8 -10 -17 -17 -16 -13 -17 -12 -4 4 13 16 21 21 21 13z m-1720
-31 c-14 -8 -32 -14 -40 -14 -8 0 -1 6 15 14 40 18 57 18 25 0z m1680 1 c0 -2
-8 -10 -17 -17 -16 -13 -17 -12 -4 4 13 16 21 21 21 13z m-116 -95 c-13 -12
-90 -56 -83 -47 15 16 84 64 88 60 3 -2 0 -8 -5 -13z m-1370 -61 c-33 -15 -72
-30 -85 -34 -13 -3 1 5 31 19 30 14 64 29 75 34 11 5 25 10 30 10 6 0 -17 -13
-51 -29z m1261 -10 c-10 -11 -23 -20 -29 -20 -6 0 0 9 14 20 32 25 38 25 15 0z
m525 -27 c-2 -31 -688 -458 -706 -440 -3 3 14 16 38 30 24 13 77 44 118 67
137 78 294 177 415 264 118 83 135 93 135 79z m-1955 -33 c-22 -10 -44 -18
-50 -18 -5 0 8 8 30 19 22 10 45 18 50 18 6 0 -8 -9 -30 -19z m760 10 c-3 -5
-12 -10 -18 -10 -7 0 -6 4 3 10 19 12 23 12 15 0z m595 2 c0 -7 -18 -17 -87
-52 -43 -20 -23 -2 30 29 59 34 57 34 57 23z m909 -25 c-2 -2 -24 -19 -48 -38
-72 -55 -195 -139 -204 -139 -5 0 42 36 105 81 62 45 119 87 127 95 8 7 17 11
20 9 2 -3 2 -6 0 -8z m-2329 -11 c0 -2 -7 -7 -16 -10 -8 -3 -12 -2 -9 4 6 10
25 14 25 6z m-404 -52 c-66 -24 -122 -42 -124 -39 -8 7 2 15 24 19 11 2 55 18
99 34 44 17 89 30 100 31 11 0 -34 -20 -99 -45z m1704 18 c0 -8 -63 -42 -78
-42 -6 0 68 49 76 50 1 0 2 -4 2 -8z m-765 -11 c-28 -26 -793 -332 -809 -323
-4 2 20 15 55 27 159 56 662 263 716 294 22 13 51 15 38 2z m665 -46 c-7 -8
-17 -15 -23 -15 -6 0 -2 7 9 15 25 19 30 19 14 0z m-45 -25 c-3 -5 -12 -10
-18 -10 -7 0 -6 4 3 10 19 12 23 12 15 0z m795 6 c0 -5 -193 -130 -290 -188
-161 -96 -408 -228 -427 -228 -5 0 58 35 138 79 169 90 404 230 499 295 60 42
80 52 80 42z m-100 -186 c-14 -11 -85 -54 -158 -96 -73 -43 -144 -88 -157
-100 -45 -42 -742 -380 -766 -372 -6 2 71 41 170 87 100 46 185 89 189 96 4 6
46 30 94 53 121 57 422 222 543 297 55 34 102 60 105 58 3 -2 -6 -13 -20 -23z
m-920 11 c0 -5 -9 -12 -19 -16 -11 -3 -18 -12 -15 -18 3 -8 -57 -40 -168 -91
-224 -101 -565 -243 -603 -251 -16 -3 25 17 93 46 67 29 121 54 118 56 -2 2
-43 -12 -91 -32 -47 -20 -92 -34 -98 -32 -7 2 6 10 28 17 80 26 429 177 640
277 125 60 115 56 115 44z m865 -1 c-3 -5 -12 -10 -18 -10 -7 0 -6 4 3 10 19
12 23 12 15 0z m655 -4 c0 -2 -7 -7 -16 -10 -8 -3 -12 -2 -9 4 6 10 25 14 25
6z m-1511 -100 c-26 -23 -806 -359 -784 -337 6 5 96 46 200 89 183 76 472 205
545 242 30 15 53 19 39 6z m1291 -51 c-19 -14 -38 -25 -43 -25 -12 0 54 48 67
49 6 1 -5 -10 -24 -24z m549 2 c-40 -30 -111 -78 -104 -69 17 19 89 71 99 72
5 0 7 -1 5 -3z m-1269 -11 c0 -2 -7 -7 -16 -10 -8 -3 -12 -2 -9 4 6 10 25 14
25 6z m380 -14 c0 -13 -246 -151 -480 -271 -116 -59 -207 -111 -203 -116 5 -4
3 -5 -4 -2 -6 4 -23 3 -37 -3 -15 -5 -26 -6 -26 -1 0 5 15 14 33 20 47 16 507
259 612 324 93 57 105 63 105 49z m80 -30 c0 -23 -705 -402 -749 -402 -31 0 9
24 201 120 116 58 280 146 367 196 150 89 181 103 181 86z m160 -7 c0 -2 -10
-9 -22 -15 -22 -11 -22 -10 -4 4 21 17 26 19 26 11z m-560 -9 c0 -16 -755
-385 -765 -374 -2 2 71 38 163 81 92 43 262 127 377 187 203 105 225 115 225
106z m1026 -55 c-7 -11 -76 -52 -76 -46 0 4 70 53 78 54 2 1 1 -3 -2 -8z
m-586 -11 c-35 -24 -54 -31 -30 -11 14 11 30 21 35 21 6 0 3 -5 -5 -10z m-60
-35 c0 -2 -13 -11 -30 -20 -38 -19 -40 -11 -2 9 31 17 32 18 32 11z m335 -144
c6 -11 -95 -73 -330 -201 -266 -145 -414 -219 -420 -210 -6 10 -20 2 150 90
157 81 475 258 544 301 51 33 48 32 56 20z m-365 -59 c0 -9 -241 -138 -505
-270 -198 -99 -255 -125 -255 -114 1 4 117 64 258 134 141 70 309 156 372 191
121 68 130 72 130 59z m-1653 -38 c-3 -3 -12 -4 -19 -1 -8 3 -5 6 6 6 11 1 17
-2 13 -5z m753 -89 c0 -8 -62 -37 -67 -31 -3 3 10 12 28 20 42 18 39 17 39 11z
m-405 -185 c-3 -5 -12 -10 -18 -10 -7 0 -6 4 3 10 19 12 23 12 15 0z m1085
-94 c0 -2 -7 -7 -16 -10 -8 -3 -12 -2 -9 4 6 10 25 14 25 6z m-30 -94 c0 -5
-11 -14 -25 -20 -39 -18 -44 -14 -10 7 36 23 35 23 35 13z m-70 -37 c0 -6 -56
-35 -67 -35 -4 1 8 9 27 20 39 22 40 22 40 15z m-210 -25 c-8 -5 -19 -10 -25
-10 -5 0 -3 5 5 10 8 5 20 10 25 10 6 0 3 -5 -5 -10z m45 -60 c-3 -5 -12 -10
-18 -10 -7 0 -6 4 3 10 19 12 23 12 15 0z"/>
<path d="M2050 1725 c-25 -13 -40 -24 -35 -24 6 0 30 11 55 24 25 13 41 24 35
24 -5 0 -30 -11 -55 -24z"/>
<path d="M1910 1660 c-19 -11 -30 -19 -25 -19 6 0 26 8 45 19 19 11 31 19 25
19 -5 0 -26 -8 -45 -19z"/>
<path d="M1830 1625 c-14 -8 -20 -14 -15 -14 6 0 21 6 35 14 14 8 21 14 15 14
-5 0 -21 -6 -35 -14z"/>
<path d="M1740 1585 c-14 -8 -20 -14 -15 -14 6 0 21 6 35 14 14 8 21 14 15 14
-5 0 -21 -6 -35 -14z"/>
<path d="M1645 1545 c-27 -14 -39 -22 -25 -19 30 8 99 43 85 43 -5 1 -32 -10
-60 -24z"/>
<path d="M1365 2870 c-3 -6 1 -7 9 -4 18 7 21 14 7 14 -6 0 -13 -4 -16 -10z"/>
<path d="M1330 2850 c-9 -6 -10 -10 -3 -10 6 0 15 5 18 10 8 12 4 12 -15 0z"/>
<path d="M1270 2825 c-14 -8 -20 -14 -14 -15 5 0 19 7 30 15 24 18 16 19 -16
0z"/>
<path d="M923 2773 c-13 -2 -23 -8 -23 -13 0 -10 38 -1 46 11 3 5 4 8 2 8 -2
-1 -13 -4 -25 -6z"/>
<path d="M870 2750 c-9 -6 -10 -10 -3 -10 6 0 15 5 18 10 8 12 4 12 -15 0z"/>
<path d="M785 2580 c-3 -5 -2 -10 4 -10 5 0 13 5 16 10 3 6 2 10 -4 10 -5 0
-13 -4 -16 -10z"/>
<path d="M3080 2571 c0 -12 4 -20 9 -17 14 9 41 -4 41 -20 0 -8 5 -14 11 -14
6 0 8 7 5 16 -3 9 -6 18 -6 20 0 2 -5 4 -12 4 -6 0 -20 7 -30 17 -17 15 -18
15 -18 -6z"/>
<path d="M712 2551 c-11 -6 -9 -9 7 -14 11 -3 25 1 32 9 9 11 8 14 -7 14 -11
0 -25 -4 -32 -9z"/>
<path d="M3050 2541 c0 -5 5 -13 10 -16 6 -3 10 -2 10 4 0 5 -4 13 -10 16 -5
3 -10 2 -10 -4z"/>
<path d="M3185 2500 c-3 -5 -1 -10 4 -10 6 0 11 5 11 10 0 6 -2 10 -4 10 -3 0
-8 -4 -11 -10z"/>
<path d="M714 2478 l-19 -23 23 19 c21 18 27 26 19 26 -2 0 -12 -10 -23 -22z"/>
<path d="M3240 2464 c0 -8 4 -13 9 -9 5 3 16 -2 25 -10 19 -19 33 -1 16 20
-16 20 -50 19 -50 -1z"/>
<path d="M3168 2463 c7 -3 16 -2 19 1 4 3 -2 6 -13 5 -11 0 -14 -3 -6 -6z"/>
<path d="M3314 2419 c-9 -15 11 -33 30 -26 9 4 13 13 10 22 -7 17 -30 20 -40
4z"/>
<path d="M3364 2401 c0 -15 3 -17 13 -9 7 6 10 14 7 19 -9 15 -20 10 -20 -10z"/>
<path d="M449 2373 c-13 -16 -12 -17 4 -4 9 7 17 15 17 17 0 8 -8 3 -21 -13z"/>
<path d="M3410 2375 c-11 -13 -10 -14 4 -9 9 3 16 10 16 15 0 13 -6 11 -20 -6z"/>
<path d="M3480 2351 c0 -5 5 -13 10 -16 6 -3 10 -2 10 4 0 5 -4 13 -10 16 -5
3 -10 2 -10 -4z"/>
<path d="M3437 2329 c-3 -12 -10 -18 -16 -14 -6 3 -11 1 -11 -4 0 -15 11 -13
34 4 10 8 23 12 27 9 5 -3 6 2 3 10 -9 23 -31 20 -37 -5z"/>
<path d="M3355 2330 c-3 -6 1 -7 9 -4 18 7 21 14 7 14 -6 0 -13 -4 -16 -10z"/>
<path d="M3487 2306 c-4 -10 -1 -13 9 -9 15 6 19 23 5 23 -5 0 -11 -7 -14 -14z"/>
<path d="M270 2270 c-13 -8 -13 -10 2 -10 9 0 20 5 23 10 8 13 -5 13 -25 0z"/>
<path d="M3600 2241 c0 -5 7 -12 16 -15 14 -5 15 -4 4 9 -14 17 -20 19 -20 6z"/>
<path d="M215 2220 c-13 -5 -14 -9 -5 -9 8 0 24 4 35 9 13 5 14 9 5 9 -8 0
-24 -4 -35 -9z"/>
<path d="M3650 2210 c0 -5 5 -10 11 -10 5 0 7 5 4 10 -3 6 -8 10 -11 10 -2 0
-4 -4 -4 -10z"/>
<path d="M3789 2203 c-13 -17 -13 -17 6 -3 11 8 22 16 24 17 2 2 0 3 -6 3 -6
0 -17 -8 -24 -17z"/>
<path d="M290 2176 c-10 -13 -7 -14 14 -10 18 3 26 0 26 -10 0 -11 9 -15 29
-13 22 1 27 5 19 15 -6 6 -17 12 -24 12 -8 0 -14 5 -14 10 0 15 -36 12 -50 -4z"/>
<path d="M3710 2180 c-8 -5 -12 -12 -9 -15 4 -3 12 1 19 10 14 17 11 19 -10 5z"/>
<path d="M121 2129 c-13 -17 -21 -33 -18 -35 3 -3 15 9 27 26 29 41 20 49 -9
9z"/>
<path d="M177 2101 c-9 -21 -23 -75 -31 -120 -14 -74 -14 -93 -1 -179 18 -120
30 -163 63 -227 75 -148 211 -255 347 -273 117 -15 276 -3 365 28 14 5 45 14
69 20 l43 11 -89 92 c-49 51 -144 157 -210 237 -113 136 -322 350 -342 350 -5
0 -16 6 -23 14 -21 20 -110 66 -130 66 -9 0 -20 5 -23 10 -11 19 -23 10 -38
-29z m263 -215 c0 -2 -7 -7 -16 -10 -8 -3 -12 -2 -9 4 6 10 25 14 25 6z"/>
<path d="M410 2109 c0 -5 5 -7 10 -4 6 3 10 8 10 11 0 2 -4 4 -10 4 -5 0 -10
-5 -10 -11z"/>
<path d="M445 2100 c4 -6 11 -8 16 -5 14 9 11 15 -7 15 -8 0 -12 -5 -9 -10z"/>
<path d="M375 2090 c3 -5 8 -10 11 -10 2 0 4 5 4 10 0 6 -5 10 -11 10 -5 0 -7
-4 -4 -10z"/>
<path d="M3740 2090 c0 -5 5 -10 10 -10 6 0 10 5 10 10 0 6 -4 10 -10 10 -5 0
-10 -4 -10 -10z"/>
<path d="M464 2064 c3 -9 6 -18 6 -20 0 -11 30 -2 31 9 0 6 4 2 9 -10 6 -16
15 -21 27 -17 11 4 14 3 6 -3 -19 -14 9 -43 35 -36 33 8 27 27 -13 42 -19 7
-40 21 -45 32 -13 24 -65 27 -56 3z"/>
<path d="M3575 2034 l-40 -36 43 32 c36 27 49 40 40 40 -2 0 -21 -16 -43 -36z"/>
<path d="M3790 2056 c0 -9 8 -16 20 -16 11 0 20 5 20 12 0 6 -3 8 -7 5 -3 -4
-12 -2 -20 4 -10 9 -13 8 -13 -5z"/>
<path d="M435 2050 c3 -5 8 -10 11 -10 2 0 4 5 4 10 0 6 -5 10 -11 10 -5 0 -7
-4 -4 -10z"/>
<path d="M6412 2017 c-49 -50 -54 -70 -72 -282 -5 -60 -14 -126 -19 -145 -6
-19 -11 -65 -10 -101 1 -36 -4 -75 -10 -87 -6 -11 -11 -38 -11 -58 0 -54 -29
-200 -52 -261 -11 -29 -17 -57 -14 -62 4 -5 2 -12 -3 -15 -5 -4 -11 6 -13 21
l-3 28 -22 -22 c-13 -13 -27 -23 -32 -23 -5 0 -14 -7 -21 -15 -17 -20 -50 -19
-50 1 0 12 -7 15 -31 12 -20 -3 -33 0 -36 9 -3 7 -10 13 -15 13 -5 0 -21 9
-34 19 -24 19 -24 19 -53 -7 -16 -15 -52 -45 -81 -66 -29 -22 -48 -42 -42 -44
7 -2 12 -12 12 -21 0 -15 11 -19 70 -23 38 -3 77 -11 86 -19 16 -13 40 -18
114 -21 63 -2 98 13 157 67 108 100 138 126 153 135 11 7 16 44 22 160 4 83
10 161 14 173 16 49 30 148 22 153 -4 3 -8 1 -8 -5 0 -5 -10 -13 -22 -17 -13
-3 -32 -14 -43 -22 -11 -9 3 8 31 38 55 59 52 48 66 210 1 8 0 66 0 129 l-2
114 -27 -24 -28 -24 28 31 c21 24 28 40 25 63 l-3 32 -43 -44z m-182 -1031 c0
-2 -8 -10 -17 -17 -16 -13 -17 -12 -4 4 13 16 21 21 21 13z"/>
<path d="M14 2019 c-19 -22 -19 -22 4 -10 12 6 22 16 22 21 0 15 -5 12 -26
-11z"/>
<path d="M496 2008 c7 -25 24 -39 36 -32 10 6 -21 54 -34 54 -5 0 -6 -10 -2
-22z"/>
<path d="M3912 2010 c-16 -26 -15 -30 6 -30 14 0 15 2 2 10 -12 8 -11 10 7 10
12 0 26 -7 31 -17 10 -17 42 -12 42 8 0 6 -7 9 -15 5 -9 -3 -19 3 -25 14 -14
25 -32 25 -48 0z"/>
<path d="M10 1913 c1 -67 2 -76 14 -60 10 13 11 29 5 62 -5 25 -6 52 -3 60 4
8 1 15 -5 15 -7 0 -11 -27 -11 -77z"/>
<path d="M575 1969 c-4 -6 -5 -13 -2 -16 8 -7 47 7 47 18 0 13 -37 11 -45 -2z"/>
<path d="M3479 1963 c-13 -16 -12 -17 4 -4 16 13 21 21 13 21 -2 0 -10 -8 -17
-17z"/>
<path d="M538 1953 c7 -3 16 -2 19 1 4 3 -2 6 -13 5 -11 0 -14 -3 -6 -6z"/>
<path d="M3955 1950 c3 -5 8 -10 11 -10 2 0 4 5 4 10 0 6 -5 10 -11 10 -5 0
-7 -4 -4 -10z"/>
<path d="M597 1934 c-3 -3 14 -36 38 -72 50 -74 196 -245 203 -237 2 2 -22 38
-54 80 -89 115 -90 117 -68 108 17 -6 17 -5 6 10 -8 8 -21 13 -30 11 -15 -5
-15 -4 1 6 23 15 22 21 -14 63 -29 34 -65 47 -82 31z"/>
<path d="M4178 1873 c-10 -2 -18 -12 -18 -22 0 -9 -5 -22 -10 -27 -16 -16 25
-11 44 5 9 8 16 22 16 32 0 19 -2 20 -32 12z"/>
<path d="M3294 1834 c-18 -14 -18 -15 4 -4 12 6 22 13 22 15 0 8 -5 6 -26 -11z"/>
<path d="M21 1735 c-2 -156 32 -220 189 -359 24 -22 60 -25 60 -5 0 6 5 7 12
3 7 -4 8 -3 4 5 -4 6 -11 9 -15 6 -11 -6 -71 70 -71 90 0 8 -7 18 -15 21 -8 4
-15 12 -15 19 0 7 -8 19 -17 26 -17 13 -17 13 -3 -6 15 -20 15 -20 -8 -1 -12
11 -20 26 -18 33 8 20 -42 73 -62 66 -16 -6 -16 -5 1 11 18 19 23 31 8 21 -5
-3 -13 0 -17 6 -4 8 -3 9 4 5 7 -4 12 -2 12 4 0 6 5 8 13 4 8 -5 8 -3 -2 9 -7
9 -17 15 -21 12 -13 -8 -22 12 -30 69 -7 46 -8 43 -9 -39z m90 -152 c13 -16
12 -17 -3 -4 -10 7 -18 15 -18 17 0 8 8 3 21 -13z"/>
<path d="M4210 1800 c0 -5 5 -10 11 -10 5 0 7 5 4 10 -3 6 -8 10 -11 10 -2 0
-4 -4 -4 -10z"/>
<path d="M730 1796 c0 -8 33 -46 40 -46 3 0 11 4 19 9 12 8 12 12 -2 25 -11
12 -16 13 -20 3 -3 -9 -8 -9 -20 2 -10 7 -17 11 -17 7z"/>
<path d="M815 1710 c-3 -5 3 -20 14 -32 12 -12 56 -73 98 -135 42 -62 79 -111
81 -108 4 3 -8 32 -61 143 -11 23 -24 42 -29 42 -4 0 -8 5 -8 10 0 6 -11 21
-25 34 -14 13 -25 28 -25 34 0 5 -7 13 -16 16 -21 8 -22 8 -29 -4z"/>
<path d="M1046 1452 c-7 -12 35 -45 44 -35 5 4 -2 16 -15 26 -13 9 -26 13 -29
9z"/>
<path d="M4830 1443 c0 -27 12 -29 31 -6 12 14 12 15 0 9 -8 -5 -17 -3 -22 5
-6 10 -9 8 -9 -8z"/>
<path d="M4902 1425 c-54 -24 -131 -88 -126 -106 2 -9 -10 -25 -33 -42 -21
-15 -69 -51 -108 -79 -69 -50 -399 -272 -503 -337 -52 -33 -77 -36 -52 -6 8 9
26 23 42 31 28 15 38 34 16 30 -18 -3 -67 -34 -102 -65 -16 -14 -25 -19 -21
-11 4 8 -7 2 -25 -15 -18 -16 -30 -23 -26 -15 4 8 -3 4 -16 -10 -27 -28 -52
-43 -145 -90 -34 -17 -65 -34 -67 -39 -3 -4 -40 -26 -83 -48 -43 -22 -95 -50
-117 -62 -61 -35 -52 -19 12 19 31 19 59 37 62 40 3 3 21 14 41 23 20 9 42 25
50 34 12 16 12 17 -1 7 -40 -30 -640 -339 -640 -330 0 3 35 24 78 46 42 22
104 55 137 73 33 19 92 51 130 72 39 21 74 44 78 52 5 7 13 10 19 7 6 -4 17 2
25 12 8 10 16 18 18 17 11 -6 25 -2 25 7 0 12 -29 2 -52 -18 -10 -8 -18 -11
-18 -7 0 4 -9 0 -20 -10 -11 -10 -20 -15 -20 -11 0 4 -15 -5 -34 -19 -35 -26
-93 -45 -81 -26 3 6 -20 -4 -53 -23 -44 -25 -61 -30 -69 -21 -8 9 -7 17 5 31
16 17 16 17 -2 4 -10 -8 -25 -15 -33 -16 -8 -2 -24 -11 -35 -21 -15 -14 -36
-18 -87 -18 -63 0 -80 -6 -246 -80 l-178 -80 79 -8 c44 -5 86 -9 94 -8 158 5
277 18 353 37 18 4 27 2 27 -6 0 -7 12 -5 33 8 17 11 86 48 152 82 66 34 126
67 133 73 7 5 15 7 18 4 3 -3 -12 -15 -35 -27 -23 -11 -41 -25 -41 -30 0 -5
-17 -19 -37 -30 -44 -24 -35 -22 106 32 75 29 113 39 137 35 21 -4 37 -1 44 8
7 8 22 17 33 21 12 3 29 12 37 19 8 7 43 27 77 44 34 18 68 40 75 48 12 15 11
15 -12 3 -14 -7 -37 -21 -52 -31 -31 -22 -38 -23 -38 -6 0 6 67 51 148 100 81
48 161 99 177 113 32 28 19 24 -27 -8 -15 -10 -29 -15 -32 -10 -2 4 16 21 42
37 66 41 377 247 437 290 28 19 61 43 75 52 14 10 51 37 84 61 36 28 61 41 65
34 4 -7 12 -8 21 -2 19 12 30 12 30 1 0 -6 -60 -53 -132 -106 -73 -52 -142
-104 -153 -114 -38 -35 -547 -361 -589 -377 -26 -10 -18 -22 12 -16 15 2 34
12 43 21 30 29 59 51 69 51 5 0 24 9 42 20 18 11 43 20 56 20 12 0 22 5 22 11
0 6 5 9 12 7 19 -7 217 118 218 136 0 19 45 47 67 42 21 -6 37 7 38 31 0 20
104 85 126 78 11 -4 19 -2 19 4 0 6 8 11 18 11 24 1 47 20 69 60 11 19 45 54
76 78 31 24 57 49 57 55 0 7 15 22 33 34 37 26 118 98 100 89 -6 -4 -15 -2
-18 4 -4 6 -16 8 -27 4 -14 -4 -18 -2 -14 5 4 7 -1 11 -13 11 -11 0 -23 5 -26
10 -8 13 -13 12 -53 -5z m-1422 -890 c0 -2 -10 -9 -22 -15 -22 -11 -22 -10 -4
4 21 17 26 19 26 11z m119 1 c-2 -2 -15 -9 -29 -15 -24 -11 -24 -11 -6 3 16
13 49 24 35 12z m-217 -57 c-18 -12 -35 -19 -38 -16 -3 3 7 12 23 21 42 23 53
19 15 -5z m-112 -59 c-8 -5 -19 -10 -25 -10 -5 0 -3 5 5 10 8 5 20 10 25 10 6
0 3 -5 -5 -10z"/>
<path d="M1095 1390 c-4 -6 -11 -8 -16 -5 -5 4 -9 -1 -9 -9 0 -8 5 -18 10 -21
6 -3 10 1 10 10 0 12 6 15 20 10 15 -5 18 -3 14 9 -7 18 -20 21 -29 6z"/>
<path d="M5033 1334 c-100 -68 -154 -114 -147 -125 3 -6 11 -4 17 4 24 29 68
28 142 -3 11 -4 42 -16 69 -27 27 -10 51 -25 53 -35 4 -12 16 -16 49 -15 28 0
51 -6 62 -16 10 -10 24 -17 30 -17 7 0 12 -5 12 -11 0 -7 10 -9 25 -5 13 3 39
0 57 -8 18 -8 48 -21 66 -28 17 -7 32 -15 32 -18 0 -3 12 -6 27 -7 14 0 34
-11 43 -23 l17 -23 82 73 c58 51 79 75 70 81 -7 4 -26 1 -43 -8 -21 -10 -27
-11 -18 -2 20 21 14 37 -13 34 -16 -1 -31 5 -38 16 -12 17 -15 17 -56 -2 -24
-10 -47 -16 -52 -13 -5 3 -32 -11 -59 -31 -73 -53 -61 -28 16 36 l66 54 -34 6
c-18 3 -43 11 -55 17 -12 7 -30 12 -40 12 -10 0 -23 10 -28 23 -8 17 -17 21
-39 19 -22 -3 -27 0 -23 11 4 11 -4 13 -46 9 -37 -3 -66 -14 -102 -39 -27 -18
-61 -41 -75 -49 l-25 -16 25 21 c14 12 44 38 68 57 43 36 55 58 25 47 -10 -4
-45 -24 -78 -45 l-60 -39 53 48 c29 26 52 51 52 54 0 3 -13 5 -29 4 -21 -1
-28 2 -24 12 8 20 -1 16 -74 -33z m227 -38 c0 -3 -4 -8 -10 -11 -5 -3 -10 -1
-10 4 0 6 5 11 10 11 6 0 10 -2 10 -4z m126 -74 c-2 -4 -26 -22 -53 -41 l-48
-33 45 41 c41 37 69 53 56 33z"/>
<path d="M300 1350 c0 -5 5 -10 10 -10 6 0 10 -5 10 -12 0 -6 -7 -4 -18 5 -19
18 -44 22 -56 10 -8 -8 46 -59 73 -68 11 -3 26 -17 35 -30 18 -28 107 -75 142
-75 17 0 24 -6 24 -20 0 -11 6 -20 14 -20 7 0 19 -7 26 -15 7 -8 19 -15 27
-15 8 0 21 -7 29 -15 9 -8 24 -15 34 -15 11 0 117 39 237 86 120 47 237 93
261 101 46 16 51 34 11 43 -21 5 -22 7 -6 13 13 5 25 0 38 -15 15 -19 18 -20
19 -7 0 9 -7 20 -16 23 -9 4 -14 13 -10 22 3 8 2 13 -3 9 -5 -3 -11 0 -13 6
-7 20 -76 0 -113 -33 -19 -16 -33 -34 -30 -38 7 -11 -35 -61 -45 -55 -5 3 -20
1 -35 -5 -17 -7 -24 -7 -20 0 3 6 12 10 19 10 8 0 19 7 26 15 11 13 8 15 -17
15 -22 0 -40 -11 -67 -40 -20 -22 -41 -40 -46 -40 -4 0 -15 -3 -23 -6 -12 -4
-14 0 -10 15 3 11 12 22 22 24 9 3 -2 5 -25 6 -22 0 -45 -4 -52 -11 -15 -15
-34 -19 -109 -23 -34 -2 -67 -6 -72 -10 -6 -3 -11 0 -11 8 0 9 -9 12 -30 9
-16 -2 -30 0 -30 5 0 5 -11 10 -25 11 -14 1 -37 14 -50 29 -27 31 -31 43 -12
43 8 0 8 3 -2 9 -8 5 -23 8 -34 6 -14 -3 -17 0 -13 11 4 10 -1 18 -14 21 -11
3 -20 12 -20 19 0 8 -7 14 -15 14 -8 0 -15 -4 -15 -10z m45 -51 c11 -17 -1
-21 -15 -4 -8 9 -8 15 -2 15 6 0 14 -5 17 -11z m749 -21 c-3 -4 -12 -8 -20 -8
-8 0 -13 4 -10 8 3 5 12 9 20 9 8 0 13 -4 10 -9z m-694 -23 c7 -9 8 -15 2 -15
-5 0 -12 7 -16 15 -3 8 -4 15 -2 15 2 0 9 -7 16 -15z"/>
<path d="M1238 1270 c-2 -6 -14 -12 -28 -15 -14 -3 -47 -14 -75 -24 -27 -11
-95 -36 -150 -56 -107 -39 -244 -91 -285 -108 -24 -10 -24 -10 15 -19 22 -6
78 -13 125 -17 47 -4 92 -11 101 -15 8 -4 26 -3 40 2 13 5 27 10 31 11 5 1 33
12 64 26 61 27 79 31 69 15 -3 -5 -2 -10 3 -10 4 0 30 -20 55 -45 26 -25 51
-45 56 -45 4 0 13 -11 19 -25 6 -14 16 -25 20 -25 13 0 77 -62 85 -82 5 -15
16 -13 95 22 50 22 95 40 101 40 6 0 11 5 11 10 0 6 9 10 19 10 11 0 22 4 26
9 6 11 -9 23 -19 14 -3 -3 -20 -8 -36 -10 -17 -1 -45 -10 -62 -19 -18 -9 -34
-12 -39 -7 -6 6 11 19 41 33 50 24 60 35 38 42 -7 3 -13 13 -13 23 0 12 -9 21
-25 25 -14 3 -29 16 -35 28 -11 24 -22 27 -45 12 -10 -6 -21 -3 -37 12 -12 11
-21 24 -18 28 2 3 -10 4 -27 2 -21 -3 -29 -1 -24 7 4 6 15 11 26 11 10 0 20 6
23 14 5 12 -2 12 -41 1 -26 -7 -64 -20 -85 -29 -23 -10 -47 -14 -60 -10 -19 6
-16 10 28 30 28 13 55 24 60 24 6 0 19 7 30 16 17 12 18 16 5 24 -8 5 -28 6
-45 4 -22 -4 -26 -3 -15 4 8 6 18 8 22 6 14 -9 9 13 -6 25 -10 8 -16 9 -21 1
-8 -13 -35 -13 -35 0 0 6 6 10 14 10 18 0 30 17 17 24 -5 4 -11 2 -13 -4z
m247 -248 c12 -17 13 -22 4 -15 -9 7 -20 9 -24 5 -5 -4 -5 -1 -1 6 4 7 1 12
-8 12 -9 0 -16 5 -16 10 0 19 25 9 45 -18z"/>
<path d="M4689 1173 c-13 -16 -12 -17 4 -4 9 7 17 15 17 17 0 8 -8 3 -21 -13z"/>
<path d="M5630 1181 c0 -5 5 -13 10 -16 6 -3 10 -2 10 4 0 5 -4 13 -10 16 -5
3 -10 2 -10 -4z"/>
<path d="M4635 1134 l-30 -26 33 22 c17 12 32 23 32 26 0 7 -4 5 -35 -22z"/>
<path d="M1240 1130 c-8 -5 -10 -10 -5 -10 6 0 17 5 25 10 8 5 11 10 5 10 -5
0 -17 -5 -25 -10z"/>
<path d="M1400 1102 c0 -22 26 -32 46 -17 19 15 19 16 -1 13 -11 -1 -26 1 -32
5 -7 5 -13 4 -13 -1z"/>
<path d="M4556 1080 c-47 -36 -57 -46 -31 -32 23 13 83 61 75 61 -3 0 -22 -13
-44 -29z"/>
<path d="M5770 1093 c-11 -5 -91 -60 -128 -89 -2 -1 -1 -12 3 -23 5 -16 14
-20 47 -19 28 0 44 -5 50 -16 8 -14 20 -8 81 45 74 64 92 98 50 93 -13 -1 -23
2 -23 7 0 10 -56 11 -80 2z"/>
<path d="M4378 1065 c-20 -13 -39 -29 -43 -35 -3 -5 14 4 39 21 25 17 46 32
46 35 0 6 -1 5 -42 -21z"/>
<path d="M4470 1019 c-22 -18 -22 -19 -3 -10 12 6 25 16 28 21 9 15 3 12 -25
-11z"/>
<path d="M2410 1015 c-14 -8 -20 -14 -15 -14 6 0 21 6 35 14 14 8 21 14 15 14
-5 0 -21 -6 -35 -14z"/>
<path d="M4290 1005 c-7 -8 -20 -15 -30 -15 -10 0 -20 -7 -24 -15 -3 -8 -12
-15 -19 -15 -8 0 -22 -10 -33 -22 -21 -24 -18 -22 66 30 66 42 65 41 58 47 -3
3 -11 -1 -18 -10z"/>
<path d="M4410 979 c-22 -18 -22 -19 -3 -10 12 6 25 16 28 21 9 15 3 12 -25
-11z"/>
<path d="M4350 939 c-22 -18 -22 -19 -3 -10 12 6 25 16 28 21 9 15 3 12 -25
-11z"/>
<path d="M1640 898 c-109 -32 -237 -88 -201 -88 7 0 9 -4 6 -10 -3 -5 0 -10 9
-10 8 0 16 -5 18 -11 3 -9 10 -9 27 0 27 15 39 8 22 -12 -17 -21 -3 -45 30
-52 16 -4 29 -11 29 -16 0 -5 11 -11 25 -15 14 -3 37 -20 53 -38 15 -17 48
-39 72 -49 25 -9 57 -27 72 -39 67 -56 84 -68 97 -68 17 0 84 -22 91 -30 9
-10 61 -30 77 -30 9 0 24 -10 34 -22 l19 -21 112 57 c62 31 103 55 92 52 -17
-3 -20 1 -17 15 6 23 -20 25 -57 4 -31 -18 -46 -19 -32 -2 8 9 4 12 -14 13
-13 1 -21 -2 -18 -7 3 -5 1 -9 -4 -9 -16 0 -22 13 -11 27 9 10 8 13 -5 13 -19
0 -21 16 -3 24 6 3 3 4 -8 3 -12 -1 -20 4 -20 13 0 8 -5 16 -10 16 -6 1 -9 -2
-7 -8 3 -11 -14 -2 -42 21 -16 13 -18 13 -11 1 7 -12 6 -13 -6 -4 -11 9 -37 2
-114 -32 -130 -57 -146 -55 -27 2 50 25 92 49 92 54 0 6 -6 9 -12 8 -7 -2 -12
3 -10 10 1 8 -2 11 -7 8 -5 -3 -23 11 -40 32 -27 35 -61 51 -61 30 0 -5 -4 -7
-9 -4 -5 4 -43 -7 -85 -23 -92 -35 -114 -22 -27 16 34 14 61 30 61 35 0 5 5 6
10 3 6 -3 10 -2 10 3 0 14 -26 33 -34 25 -6 -7 -76 -13 -76 -7 0 2 17 12 38
23 22 12 30 20 20 21 -10 0 -18 5 -18 10 0 6 -7 10 -15 10 -9 0 -12 -6 -8 -17
5 -15 3 -15 -11 2 -16 19 -17 19 -12 1 5 -14 3 -16 -6 -9 -7 6 -20 13 -28 15
-11 4 -7 9 13 17 40 16 33 21 -23 16 -53 -4 -67 9 -25 25 14 5 25 12 25 15 0
3 -1 5 -2 4 -2 -1 -19 -6 -38 -11z m440 -412 c0 -2 -7 -7 -16 -10 -8 -3 -12
-2 -9 4 6 10 25 14 25 6z"/>
<path d="M4223 859 c-35 -22 -46 -37 -15 -20 22 13 58 40 52 41 -3 0 -20 -10
-37 -21z"/>
<path d="M3829 753 c-13 -16 -12 -17 4 -4 16 13 21 21 13 21 -2 0 -10 -8 -17
-17z"/>
<path d="M3776 724 c-23 -23 -20 -30 4 -9 11 10 20 20 20 22 0 7 -9 2 -24 -13z"/>
<path d="M2276 443 c-96 -41 -107 -48 -88 -56 12 -6 22 -16 22 -24 0 -7 3 -13
6 -13 3 0 63 28 133 62 118 57 124 62 96 68 -49 12 -56 11 -169 -37z"/>
<path d="M2620 450 c-25 -4 -58 -12 -74 -19 -27 -11 -28 -10 -15 6 15 18 16
18 -38 -4 -11 -4 -14 -3 -9 5 4 7 6 12 3 12 -15 0 -250 -107 -251 -115 -3 -23
48 -13 123 24 82 42 101 48 101 32 0 -4 -21 -16 -47 -26 -46 -18 -47 -19 -23
-29 36 -15 37 -16 15 -33 -11 -8 -13 -13 -5 -9 8 3 24 9 35 13 33 11 255 122
255 127 0 3 -8 2 -17 -1 -16 -6 -16 -5 -4 10 7 9 10 16 5 16 -5 -1 -29 -5 -54
-9z"/>
<path d="M2757 428 c2 -5 1 -8 -4 -9 -4 0 -19 -2 -33 -3 -36 -3 -226 -90 -205
-94 11 -3 15 -10 12 -23 -3 -10 -2 -18 1 -16 4 2 69 34 144 70 75 37 139 71
142 76 4 6 -8 9 -28 8 -19 -1 -32 -5 -29 -9z"/>
</g>
</svg>
